<svg width="26.939087" height="29.377106" viewBox="0 0 26.9391 29.3771" fill="none" xmlns="http://www.w3.org/2000/svg" xmlns:xlink="http://www.w3.org/1999/xlink">
	<desc>
			Created with Pixso.
	</desc>
	<defs/>
	<path id="Vector" d="M4.07 15.48C7.26 14.79 6.83 10.97 6.73 10.14C6.58 8.85 5.07 6.6 3.01 6.78C0.43 7.01 0.05 10.74 0.05 10.74C-0.3 12.47 0.89 16.16 4.07 15.48ZM10 9.07C11.76 9.07 13.18 7.04 13.18 4.53C13.18 2.02 11.76 0 10 0C8.23 0 6.81 2.02 6.81 4.53C6.81 7.04 8.23 9.07 10 9.07ZM17.59 9.37C19.94 9.68 21.45 7.16 21.76 5.26C22.07 3.35 20.54 1.14 18.88 0.76C17.21 0.37 15.12 3.05 14.93 4.8C14.7 6.94 15.23 9.07 17.59 9.37ZM26.92 12.58C26.92 11.66 26.17 8.91 23.36 8.91C20.54 8.91 20.17 11.51 20.17 13.34C20.17 15.09 20.32 17.53 23.81 17.46C27.3 17.38 26.92 13.49 26.92 12.58ZM23.36 20.58C23.36 20.58 19.71 17.76 17.59 14.71C14.7 10.21 10.6 12.05 9.23 14.33C7.87 16.62 5.74 18.07 5.44 18.45C5.13 18.83 1.04 21.04 1.95 25.08C2.86 29.12 6.05 29.05 6.05 29.05C6.05 29.05 8.4 29.28 11.13 28.67C13.87 28.06 16.22 28.82 16.22 28.82C16.22 28.82 22.6 30.96 24.34 26.84C26.09 22.72 23.36 20.58 23.36 20.58L23.36 20.58Z" fill="#2319DC" fill-opacity="1.000000" fill-rule="nonzero"/>
	<path id="Vector" d="M10.56 16.65L10.56 19.36L8.35 19.36C8.35 19.36 6.15 19.55 5.37 22.05C5.1 23.72 5.61 24.71 5.7 24.92C5.79 25.13 6.5 26.35 8.29 26.71L12.44 26.71L12.44 16.68L10.56 16.65ZM10.53 25.07L8.86 25.07C8.86 25.07 7.7 25.01 7.34 23.66C7.16 23.07 7.37 22.38 7.46 22.11C7.55 21.84 7.94 21.22 8.74 20.98L10.53 20.98L10.53 25.07ZM13.46 19.61L13.46 24.89C13.46 24.89 13.54 26.2 15.39 26.68L20.17 26.68L20.17 19.61L18.11 19.61L18.11 24.92L16.14 24.92C16.14 24.92 15.51 24.83 15.4 24.32L15.4 19.58L13.46 19.61Z" fill="#FFFFFF" fill-opacity="1.000000" fill-rule="nonzero"/>
</svg>
