<svg width="28.000000" height="24.500000" viewBox="0 0 28 24.5" fill="none" xmlns="http://www.w3.org/2000/svg" xmlns:xlink="http://www.w3.org/1999/xlink">
	<desc>
			Created with Pixso.
	</desc>
	<defs/>
	<path id="Shape" d="M27.125 0C27.6082 0 28 0.391754 28 0.875L28 23.625C28 24.1082 27.6082 24.5 27.125 24.5L0.875 24.5C0.391754 24.5 0 24.1082 0 23.625L0 0.875C0 0.391754 0.391754 0 0.875 0L27.125 0ZM8.75034 2.27353L2.27533 2.27527L2.27359 7.87527L8.75034 7.87527L8.75034 2.27353ZM10.9377 2.27353L25.7252 2.27527L25.7252 7.87527L10.9377 7.87527L10.9377 2.27353ZM8.75034 10.0623L2.27359 10.0623L2.27359 15.3614L8.75034 15.3614L8.75034 10.0623ZM10.9377 10.0623L25.7252 10.0623L25.7252 15.3614L10.9377 15.3614L10.9377 10.0623ZM8.75034 17.549L2.27359 17.549L2.27533 22.225L8.75034 22.225L8.75034 17.549ZM10.9377 17.549L25.7252 17.549L25.7252 22.225L10.9377 22.225L10.9377 17.549Z" clip-rule="evenodd" fill="#202A25" fill-opacity="1.000000" fill-rule="evenodd"/>
</svg>
