<svg width="27.562500" height="36.750000" viewBox="0 0 27.5625 36.75" fill="none" xmlns="http://www.w3.org/2000/svg" xmlns:xlink="http://www.w3.org/1999/xlink">
	<desc>
			Created with Pixso.
	</desc>
	<defs/>
	<g style="mix-blend-mode:normal">
		<path id="file-powerpoint" d="M2.625 2.625L14.4377 2.625L14.4377 13.1585L24.9375 13.1585L24.9375 17.0625L27.5625 17.0625L27.5625 12.3488C27.5625 11.6613 27.2928 11.0013 26.8113 10.5105L17.2718 0.786682C16.7781 0.283508 16.1028 0 15.3979 0L2.61279 0C1.36511 0 0 0.885315 0 2.42001L0 34.33C0 35.8647 1.36511 36.75 2.61279 36.75L11.8125 36.75L11.8125 34.125L2.625 34.125L2.625 2.625ZM17.0627 10.5335L17.0627 4.32193L23.1566 10.5335L17.0627 10.5335ZM15.9469 36.75L18.1781 36.75L18.1781 29.9906L24.9375 29.9906C26.2785 29.9906 27.3656 28.9035 27.3656 27.5625L27.3656 23.625C27.3656 22.284 26.2785 21.1969 24.9375 21.1969L15.9469 21.1969L15.9469 36.75ZM18.1781 23.4281L18.1781 27.7594L24.9375 27.7594C25.0462 27.7594 25.1344 27.6712 25.1344 27.5625L25.1344 23.625C25.1344 23.5163 25.0462 23.4281 24.9375 23.4281L18.1781 23.4281Z" clip-rule="evenodd" fill="#202A25" fill-opacity="1.000000" fill-rule="evenodd"/>
	</g>
</svg>
