<svg width="39.003845" height="45.002251" viewBox="0 0 39.0038 45.0023" fill="none" xmlns="http://www.w3.org/2000/svg" xmlns:xlink="http://www.w3.org/1999/xlink">
	<desc>
			Created with Pixso.
	</desc>
	<defs/>
	<path id="Vector" d="M34.14 9.62C33.84 9.46 33.54 9.29 33.26 9.1C32.42 8.55 31.66 7.9 30.98 7.17C29.28 5.23 28.65 3.26 28.42 1.88L28.43 1.88C28.23 0.74 28.31 0 28.32 0L20.59 0L20.59 29.88C20.59 30.28 20.59 30.68 20.58 31.07C20.58 31.12 20.57 31.16 20.57 31.22C20.57 31.24 20.57 31.26 20.57 31.28C20.57 31.29 20.57 31.29 20.57 31.3C20.48 32.37 20.14 33.41 19.56 34.32C18.99 35.22 18.2 35.98 17.26 36.51C16.29 37.06 15.19 37.35 14.07 37.35C10.47 37.35 7.55 34.42 7.55 30.79C7.55 27.16 10.47 24.23 14.07 24.23C14.75 24.23 15.43 24.33 16.07 24.55L16.08 16.68C14.12 16.42 12.12 16.58 10.21 17.14C8.31 17.69 6.54 18.64 5.02 19.91C3.69 21.07 2.57 22.45 1.71 23.99C1.38 24.56 0.15 26.82 0 30.48C-0.09 32.57 0.54 34.72 0.83 35.62L0.83 35.63C1.02 36.16 1.75 37.95 2.93 39.46C3.89 40.67 5.02 41.74 6.28 42.62L6.28 42.6L6.3 42.62C10.04 45.16 14.19 45 14.19 45C14.91 44.97 17.31 45 20.04 43.7C23.07 42.27 24.8 40.13 24.8 40.13C25.9 38.85 26.78 37.39 27.39 35.82C28.09 33.98 28.32 31.78 28.32 30.9L28.32 15.04C28.42 15.1 29.67 15.92 29.67 15.92C29.67 15.92 31.47 17.08 34.27 17.83C36.29 18.36 39 18.47 39 18.47L39 10.8C38.05 10.9 36.12 10.6 34.14 9.62Z" fill="#000000" fill-opacity="1.000000" fill-rule="nonzero"/>
</svg>
