<svg width="33.250000" height="35.000008" viewBox="0 0 33.25 35" fill="none" xmlns="http://www.w3.org/2000/svg" xmlns:xlink="http://www.w3.org/1999/xlink">
	<desc>
			Created with Pixso.
	</desc>
	<defs/>
	<path id="Vector" d="M20.05 24.27C18.04 25.52 15.66 26.25 13.12 26.25C5.87 26.25 0 20.37 0 13.12C0 5.87 5.87 0 13.12 0C20.37 0 26.25 5.87 26.25 13.12C26.25 16.56 24.92 19.69 22.76 22.03L32.73 32.01C33.42 32.69 33.42 33.8 32.73 34.48C32.05 35.17 30.94 35.17 30.26 34.48L20.05 24.27ZM22.75 13.12C22.75 18.44 18.44 22.75 13.12 22.75C7.8 22.75 3.5 18.44 3.5 13.12C3.5 7.8 7.8 3.5 13.12 3.5C18.44 3.5 22.75 7.8 22.75 13.12Z" fill="#FFFFFF" fill-opacity="1.000000" fill-rule="evenodd"/>
</svg>
