<svg width="31.500031" height="35.000000" viewBox="0 0 31.5 35" fill="none" xmlns="http://www.w3.org/2000/svg" xmlns:xlink="http://www.w3.org/1999/xlink">
	<desc>
			Created with Pixso.
	</desc>
	<defs/>
	<path id="矢量 111" d="M22.75 10.5L22.75 24.5L19.25 24.5L15.75 21L12.25 24.5L8.75 24.5L8.75 10.5L12.25 10.5L12.25 19.25L15.75 15.75L19.25 19.25L19.25 10.5L21 10.5L21 3.5L3.5 3.5L3.5 31.5L28 31.5L28 10.5L22.75 10.5ZM0 1.73C0 0.77 0.78 0 1.74 0L22.75 0L31.5 8.75L31.5 33.23C31.5 33.46 31.45 33.69 31.37 33.9C31.28 34.12 31.15 34.31 30.99 34.47C30.83 34.64 30.64 34.77 30.43 34.86C30.21 34.95 29.99 34.99 29.76 35L1.73 35C1.27 34.99 0.83 34.81 0.51 34.48C0.18 34.16 0 33.72 0 33.26L0 1.73Z" fill="#444444" fill-opacity="1.000000" fill-rule="evenodd"/>
</svg>
