<svg width="35.001770" height="38.230469" viewBox="0 0 35.0018 38.2305" fill="none" xmlns="http://www.w3.org/2000/svg" xmlns:xlink="http://www.w3.org/1999/xlink">
	<desc>
			Created with Pixso.
	</desc>
	<defs/>
	<path id="矢量 47" d="M1.5 3.15L23.5 0C23.62 -0.01 23.75 0 23.87 0.03C23.99 0.07 24.1 0.13 24.19 0.21C24.29 0.29 24.37 0.39 24.42 0.51C24.47 0.62 24.5 0.74 24.5 0.87L24.5 37.35C24.5 37.48 24.47 37.6 24.42 37.71C24.37 37.83 24.29 37.93 24.2 38.01C24.1 38.09 23.99 38.15 23.87 38.19C23.75 38.23 23.62 38.23 23.5 38.22L1.5 35.08C1.08 35.02 0.7 34.81 0.42 34.49C0.15 34.17 0 33.76 0 33.34L0 4.88C0 4.46 0.15 4.05 0.42 3.73C0.7 3.41 1.08 3.2 1.5 3.15L1.5 3.15ZM3.5 6.4L3.5 31.82L21 34.32L21 3.9L3.5 6.4ZM26.25 31.36L31.5 31.36L31.5 6.86L26.25 6.86L26.25 3.36L33.25 3.36C33.71 3.36 34.16 3.54 34.48 3.87C34.81 4.2 35 4.65 35 5.11L35 33.11C35 33.57 34.81 34.02 34.48 34.35C34.16 34.68 33.71 34.86 33.25 34.86L26.25 34.86L26.25 31.36ZM14.35 19.11L19.25 26.11L15.05 26.11L12.25 22.11L9.45 26.11L5.25 26.11L10.15 19.11L5.25 12.11L9.45 12.11L12.25 16.11L15.05 12.11L19.25 12.11L14.35 19.11Z" fill="#444444" fill-opacity="1.000000" fill-rule="evenodd"/>
</svg>
