<svg width="31.500000" height="32.782196" viewBox="0 0 31.5 32.7822" fill="none" xmlns="http://www.w3.org/2000/svg" xmlns:xlink="http://www.w3.org/1999/xlink">
	<path id="矢量 27" d="M31.5 31.03C31.5 31.49 31.31 31.94 30.98 32.26C30.65 32.59 30.21 32.78 29.75 32.78L1.75 32.78C1.28 32.78 0.84 32.59 0.51 32.26C0.18 31.94 0 31.49 0 31.03L0 12.63C-0.01 12.37 0.06 12.1 0.17 11.87C0.29 11.63 0.46 11.42 0.67 11.25L14.67 0.36C14.98 0.12 15.36 0 15.75 0C16.13 0 16.51 0.12 16.82 0.36L30.82 11.25C31.03 11.42 31.2 11.63 31.32 11.87C31.43 12.1 31.5 12.37 31.5 12.63L31.5 31.03L31.5 31.03Z" fill="#5F4BB6" fill-opacity="1.000000" fill-rule="evenodd"/>
</svg>
